PathFileType	4	(X/Y/Z)	s03c0201.trc
DataRate	CameraRate	NumFrames	NumMarkers	Units	OrigDataRate	OrigDataStartFrame	OrigNumFrames
200	200	6	52	mm	200	750	2000
Frame#	Time	racr			lacr			c7			jug			rlel			rdr			llel			ldr			s2			lic			ric			lasi			rasi			rpsi			lpsi			rgt			lgt			rth1			rth2			rth3			rth4			rlfc			rmfc			rsh1			rsh2			rsh3			rsh4			rlmal			rmmal			rcal			rtoe			rmt5			rmt1			lth1			lth2			lth4			lth3			llfc			lmfc			lsh1			lsh2			lsh3			lsh4			llmal			lmmal			lcal			ltoe			lmt1			lmt5			SBIKE			LBIKE			RBIKE			
		X1	Y1	Z1	X2	Y2	Z2	X3	Y3	Z3	X4	Y4	Z4	X5	Y5	Z5	X6	Y6	Z6	X7	Y7	Z7	X8	Y8	Z8	X9	Y9	Z9	X10	Y10	Z10	X11	Y11	Z11	X12	Y12	Z12	X13	Y13	Z13	X14	Y14	Z14	X15	Y15	Z15	X16	Y16	Z16	X17	Y17	Z17	X18	Y18	Z18	X19	Y19	Z19	X20	Y20	Z20	X21	Y21	Z21	X22	Y22	Z22	X23	Y23	Z23	X24	Y24	Z24	X25	Y25	Z25	X26	Y26	Z26	X27	Y27	Z27	X28	Y28	Z28	X29	Y29	Z29	X30	Y30	Z30	X31	Y31	Z31	X32	Y32	Z32	X33	Y33	Z33	X34	Y34	Z34	X35	Y35	Z35	X36	Y36	Z36	X37	Y37	Z37	X38	Y38	Z38	X39	Y39	Z39	X40	Y40	Z40	X41	Y41	Z41	X42	Y42	Z42	X43	Y43	Z43	X44	Y44	Z44	X45	Y45	Z45	X46	Y46	Z46	X47	Y47	Z47	X48	Y48	Z48	X49	Y49	Z49	X50	Y50	Z50	X51	Y51	Z51	X52	Y52	Z52	
750	3.7500	546.224001	1403.586978	-124.013125	484.706094	1418.714396	-418.811927	440.871532	1486.337203	-258.024199	459.955598	1316.205363	-263.928207	581.698474	1201.235144	77.520558	747.823571	993.807838	-21.247311	514.072247	1164.315614	-538.288371	731.604824	979.703243	-431.961296	-80.227849	1209.474784	-188.706719	71.332776	1246.393468	-375.241926	108.981907	1234.706827	-20.082801	100.223621	1182.718332	-345.244392	129.605203	1168.403688	-68.725849	-46.242271	1256.780631	-138.388000	-51.669466	1263.951383	-221.006821	36.248291	1110.648812	-4.705232	28.468080	1175.659370	-400.146756	107.933779	962.070496	6.543092	173.471562	901.943208	6.096319	202.192587	821.576160	-5.019524	203.875793	921.944146	-2.427869	251.053776	704.443179	-40.339976	259.168409	693.367724	-159.181814	188.980850	548.876842	-18.807623	179.690199	461.679499	-37.319575	128.484394	390.179376	-41.755500	207.594037	454.731201	-61.965758	73.058513	269.212225	-67.733216	104.580696	278.868173	-148.331285	8.324952	234.379808	-108.307665	312.024850	168.386693	-110.769097	191.784438	172.183156	-41.926142	222.062201	187.243594	-154.674288	141.051519	1110.980804	-448.666873	225.740662	1102.876951	-463.946353	240.883708	1133.932418	-449.591322	296.810466	1051.178172	-480.712069	428.383839	1003.519586	-485.322353	452.163622	988.185372	-354.640778	341.664958	852.187464	-485.227860	320.738927	773.920855	-457.007067	257.576749	710.884858	-442.599163	350.091234	762.402397	-435.487564	190.693119	607.336485	-411.151351	231.450385	621.201462	-324.298591	120.177493	576.277476	-356.756012	420.626037	501.276381	-362.146449	326.924662	511.767973	-317.848041	297.083226	502.261214	-431.097978	-213.749750	945.720655	-230.446258	-9.135253	81.513815	-433.463491	-9.137853	80.882977	-32.971679	
751	3.7550	545.622867	1402.290879	-126.860692	482.059711	1417.268211	-420.454197	439.596034	1484.557100	-260.182310	458.891280	1314.413652	-266.005903	582.330094	1201.469211	76.003317	747.810448	993.820666	-22.607007	513.109169	1163.055383	-538.662559	731.221100	979.628400	-431.774621	-81.823835	1208.371219	-186.007640	69.432409	1245.809395	-374.876665	107.884739	1234.607744	-19.520078	98.488582	1182.566823	-345.115804	128.115040	1167.960830	-67.887806	-47.429731	1256.108518	-138.108360	-53.347105	1263.271806	-220.696873	35.329202	1110.413885	-3.844696	26.934872	1174.573185	-399.999647	109.442654	962.677276	6.817624	176.113107	903.839942	6.088894	206.440042	823.986407	-4.580980	206.033883	924.374165	-2.465381	256.689747	707.213105	-39.016034	264.439068	695.943840	-157.918445	191.032529	552.836584	-17.795667	179.874080	466.227809	-36.323338	126.525463	395.767464	-41.040209	207.347632	458.748800	-61.294717	67.787929	276.581832	-67.313874	99.877268	285.443031	-148.101950	2.257586	243.648543	-108.224057	303.916075	168.511464	-110.713815	183.896008	176.304058	-42.089301	214.706874	190.289358	-154.831743	140.557903	1108.686491	-447.584776	225.553865	1100.481230	-461.875917	240.574594	1131.804604	-448.017927	296.884490	1048.406682	-477.056033	428.545074	1002.260636	-480.981965	451.191782	987.452136	-349.978162	344.212024	849.348669	-482.217316	324.805488	771.148349	-456.463760	262.196092	706.324365	-441.214550	353.702626	759.416373	-432.913080	196.940853	601.184503	-410.832136	236.556745	615.647115	-324.170822	126.656428	568.101000	-357.005018	429.046791	500.882573	-361.971422	334.512639	509.084093	-317.808667	305.574878	498.891000	-431.135536	-213.763668	945.731068	-230.277270	-9.136479	81.549987	-433.418271	-9.103952	80.895868	-32.959753	
752	3.7600	544.951580	1400.430349	-129.672361	479.453413	1415.700462	-421.962901	438.414935	1482.581930	-262.176304	457.601453	1312.398568	-268.146986	582.835223	1201.459478	74.581022	748.082232	993.540149	-22.992251	512.075093	1161.825716	-539.177997	730.772866	979.589080	-431.710778	-83.389820	1208.360063	-185.423695	67.336004	1245.353306	-374.586061	106.574983	1234.271461	-19.009033	96.362847	1181.951634	-344.256935	126.596781	1167.311022	-67.038752	-48.788480	1255.483605	-137.850780	-55.085122	1262.526018	-220.393465	34.273430	1110.088749	-3.180797	25.377091	1173.242285	-399.946069	110.919926	963.246729	7.030036	178.828978	905.946899	6.018131	210.798583	826.613583	-4.305093	208.303514	927.024085	-2.700750	262.656660	710.246587	-37.806057	269.966090	698.908360	-156.937065	193.580725	557.125129	-16.807533	180.393411	470.960743	-35.327963	124.941655	401.872960	-40.311005	207.344289	462.803310	-60.691367	63.024677	284.569382	-66.809447	95.241385	292.675694	-147.610373	-3.345548	253.652813	-108.021477	296.014909	168.954307	-110.748325	176.325073	180.791100	-42.532557	207.590662	193.853964	-154.969085	140.157973	1106.054217	-445.987376	225.159412	1097.721960	-459.858009	240.095336	1129.191963	-446.374058	296.598692	1045.380367	-473.818436	428.332983	999.934817	-476.621748	449.867507	985.723557	-345.378700	346.320457	845.623891	-479.148847	328.064765	766.901011	-454.212133	266.360833	700.994572	-439.675713	356.896768	755.688080	-430.808724	202.802328	594.259091	-410.479205	241.699550	609.038520	-323.434659	132.920193	559.038393	-357.052193	437.209725	500.098717	-361.751613	341.835496	505.798250	-317.773793	313.816407	494.882889	-431.097769	-213.785421	945.726647	-230.043031	-9.143598	81.599859	-433.378522	-9.087442	80.883913	-32.931010	
753	3.7650	544.397705	1398.287080	-132.388989	476.862851	1414.009524	-423.228284	437.261315	1480.389791	-263.980093	456.378789	1310.175393	-270.217239	583.269862	1201.235851	73.384794	748.151145	993.254547	-23.560558	510.826440	1160.701706	-540.094443	730.265462	979.579178	-431.794806	-84.830846	1207.364038	-187.644605	65.058594	1245.060604	-374.484657	105.349953	1233.780863	-18.549453	94.152189	1181.377688	-343.908722	124.956815	1166.323131	-66.478035	-50.236308	1254.726531	-137.620345	-56.848473	1261.696864	-220.154503	33.138255	1109.608697	-2.649190	23.327532	1171.485285	-398.951407	112.328769	964.081773	7.336422	181.566606	908.126363	5.848785	215.246688	829.545584	-4.166437	210.490994	929.776910	-2.919755	268.931886	713.633845	-36.798893	275.803485	702.097103	-155.999393	196.491819	561.715775	-15.920783	180.759835	476.174962	-35.022399	123.839394	408.366714	-39.596249	207.769131	467.304927	-60.076507	58.704748	292.959662	-66.285925	91.189326	300.414512	-147.329178	-8.453133	264.045785	-107.777914	288.282999	169.874191	-110.654974	169.217224	185.858296	-42.690863	200.757430	197.658742	-154.840008	140.042437	1102.844764	-442.754180	224.539481	1094.581541	-457.895325	239.616236	1126.311930	-445.295510	295.986723	1041.935545	-470.817288	427.798178	996.705531	-472.527157	448.140308	982.934004	-341.041625	347.911505	841.078067	-476.088704	330.843208	761.865435	-451.980981	270.179667	695.003060	-437.936998	359.848685	750.671061	-427.986930	208.459542	586.487747	-410.001252	246.567453	601.892722	-322.620905	139.263528	549.103775	-357.001236	444.844219	498.688266	-361.623219	348.869262	501.916661	-317.752907	321.709949	490.285045	-431.073759	-213.151252	945.525384	-229.432188	-9.137700	81.637816	-433.332356	-9.090993	80.868513	-32.878210	
754	3.7700	543.945818	1395.900235	-134.947616	474.312380	1412.177383	-424.308925	436.137203	1478.107885	-265.593257	455.096039	1307.856052	-272.185755	583.618383	1200.768893	72.297199	748.172009	992.852134	-24.168402	509.656469	1159.414920	-540.706919	729.760713	979.606867	-432.010746	-86.615134	1207.159660	-185.353200	62.514427	1244.867059	-374.394784	103.885041	1232.934999	-18.161124	92.341687	1180.751216	-344.106553	123.270891	1165.253492	-65.813640	-51.765401	1254.043761	-137.394948	-58.521003	1260.867117	-219.880377	31.954473	1108.950516	-2.269078	23.106076	1170.581090	-401.512247	113.755622	964.667597	7.436006	184.235447	910.444368	5.661734	219.814854	832.686429	-4.136871	212.553559	932.651158	-3.135587	275.317843	717.223545	-35.957304	281.688713	705.497038	-155.330853	199.584743	566.665900	-15.151394	181.613765	481.512974	-34.551065	123.066998	415.209379	-38.889268	208.075608	472.106565	-60.129498	54.862846	301.693503	-65.804237	87.538131	308.451226	-146.914974	-13.711460	275.048570	-107.551386	280.742448	171.125134	-110.585709	162.365205	191.255026	-42.838233	194.269227	202.070798	-154.748852	139.259734	1099.930481	-441.422684	223.889800	1091.108864	-455.897461	238.950396	1123.018680	-443.759112	295.101454	1038.043645	-467.905664	426.933397	992.435557	-468.593596	446.162746	979.118734	-336.961571	348.989947	835.584581	-473.090108	333.105389	755.974395	-449.822888	273.384691	687.982014	-436.508718	362.264414	745.013005	-425.720542	213.755812	578.076074	-409.417875	251.289051	593.686255	-321.733443	145.032740	538.462220	-356.773639	452.079148	496.843641	-361.507012	355.592213	497.448054	-317.754170	329.583873	484.573445	-430.162536	-213.129621	945.507437	-229.129148	-8.942037	81.834309	-433.414635	-9.072005	80.858395	-32.831241	
755	3.7750	542.149640	1393.444852	-136.398837	465.128879	1408.400380	-417.769346	435.029103	1475.686724	-267.055293	447.864456	1304.718657	-269.292103	583.818208	1200.184244	71.601206	748.108855	992.340863	-24.755929	508.446660	1158.217727	-541.402338	729.272330	979.680148	-432.259739	-88.036309	1205.891110	-184.647359	59.973016	1244.664015	-374.318238	102.446583	1231.871736	-17.886499	90.584051	1180.272602	-344.693638	121.542228	1163.905746	-65.300864	-53.368006	1253.137888	-137.114715	-60.074623	1259.938367	-219.541268	30.652892	1108.170694	-1.946031	21.567923	1168.849046	-401.379473	115.022192	965.375717	7.377289	186.760320	912.870792	5.444741	224.527857	835.829331	-4.134390	214.582531	935.625662	-3.313714	281.599915	721.088515	-35.254820	287.719665	709.065703	-154.666654	202.864698	571.713088	-14.535359	183.103316	487.164657	-33.783083	122.638033	422.300445	-38.286441	208.728531	477.268859	-59.944735	51.375040	310.846095	-65.287175	84.175240	316.838789	-146.617102	-17.761235	286.174671	-107.239472	273.319745	172.855499	-110.445844	155.850995	197.138924	-42.887164	187.902456	206.806570	-154.512003	138.404177	1096.940840	-440.277165	223.114387	1087.485240	-454.007097	238.178394	1119.285845	-442.223960	293.977405	1033.702717	-465.198011	425.718262	987.196586	-464.865449	443.760805	974.189319	-333.333721	349.539888	829.327010	-470.196004	334.880334	749.182950	-447.420914	276.155359	680.256388	-434.956277	364.252307	738.515733	-423.632220	218.841726	568.736911	-408.744237	255.653403	584.670595	-320.934610	150.501866	527.067703	-356.681493	459.715402	494.677620	-360.417210	361.984875	492.403829	-317.783527	336.760629	478.660978	-430.198319	-213.142824	945.476708	-228.813150	-8.948870	81.867679	-433.358316	-9.070484	80.837027	-32.786955	
